<?xml version="1.0" standalone="no"?>
<!DOCTYPE svg PUBLIC "-//W3C//DTD SVG 20010904//EN"
 "http://www.w3.org/TR/2001/REC-SVG-20010904/DTD/svg10.dtd">
<svg version="1.0" xmlns="http://www.w3.org/2000/svg"
 width="192.000000pt" height="192.000000pt" viewBox="0 0 192.000000 192.000000"
 preserveAspectRatio="xMidYMid meet">
<metadata>
Created by potrace 1.14, written by Peter Selinger 2001-2017
</metadata>
<g transform="translate(0.000000,192.000000) scale(0.100000,-0.100000)"
fill="#000000" stroke="none">
<path d="M838 1865 c-2 -2 -15 -6 -28 -9 -144 -27 -258 -73 -370 -150 -58 -39
-211 -193 -230 -231 -8 -17 -24 -43 -36 -60 -34 -47 -92 -204 -108 -291 -20
-109 -14 -286 13 -389 26 -97 98 -249 151 -318 42 -55 117 -130 168 -169 31
-23 59 -45 62 -48 18 -18 154 -84 216 -104 92 -30 205 -45 314 -41 58 2 114 5
125 8 11 3 40 10 65 16 25 6 70 20 100 31 30 12 63 23 73 27 9 3 17 9 17 14 0
5 6 9 14 9 47 0 243 170 318 275 64 90 131 240 144 324 3 18 8 43 11 55 2 11
6 64 9 117 7 182 -39 352 -143 523 -35 57 -133 164 -208 226 -91 75 -243 144
-390 176 -32 6 -281 14 -287 9z"/>
</g>
</svg>
