<?xml version="1.0" standalone="no"?>
<!DOCTYPE svg PUBLIC "-//W3C//DTD SVG 20010904//EN"
 "http://www.w3.org/TR/2001/REC-SVG-20010904/DTD/svg10.dtd">
<svg version="1.0" xmlns="http://www.w3.org/2000/svg"
 width="794.000000pt" height="794.000000pt" viewBox="0 0 794.000000 794.000000"
 preserveAspectRatio="xMidYMid meet">
<metadata>
Created by potrace 1.14, written by Peter Selinger 2001-2017
</metadata>
<g transform="translate(0.000000,794.000000) scale(0.100000,-0.100000)"
fill="#000000" stroke="none">
<path d="M1078 6614 c-38 -20 -47 -53 -48 -167 0 -60 5 -117 11 -129 18 -33
67 -46 184 -47 179 -3 281 -13 360 -36 131 -38 166 -134 182 -505 10 -203 10
-3287 0 -3495 -11 -253 -27 -347 -73 -419 -71 -112 -188 -146 -514 -148 -210
-1 -218 -8 -216 -177 2 -122 12 -155 51 -168 11 -4 549 -7 1195 -8 l1175 0 30
26 c29 27 29 27 31 144 1 115 0 119 -26 149 -28 30 -28 31 -141 32 -280 5
-409 33 -472 104 -53 59 -82 140 -93 259 -2 31 -7 76 -10 101 -8 69 -14 1494
-6 1505 7 10 221 198 254 224 16 12 44 -13 269 -240 138 -140 472 -477 742
-750 623 -627 622 -627 792 -830 45 -54 105 -152 116 -189 15 -50 4 -77 -44
-114 -60 -46 -196 -65 -482 -68 l-150 -2 -31 -30 -30 -31 1 -118 c1 -114 2
-118 28 -145 l27 -27 1357 0 c1473 0 1401 -3 1422 55 11 32 8 226 -4 253 -12
29 -55 44 -128 46 -244 7 -408 62 -576 194 -220 174 -306 258 -1672 1638 -395
398 -769 776 -833 840 -64 64 -116 120 -116 125 0 4 15 21 33 38 108 99 235
216 267 246 21 19 89 82 151 140 62 58 127 118 144 133 16 16 65 61 109 100
43 40 97 89 120 110 22 22 66 62 96 90 30 28 84 78 120 112 103 96 276 255
302 276 13 11 48 42 78 69 81 71 102 89 133 113 15 12 38 30 50 41 138 117
372 239 556 291 99 28 121 32 250 44 80 8 98 14 119 35 24 24 25 30 25 146 -1
132 -7 150 -61 167 -15 5 -468 9 -1007 8 -1063 -1 -1011 2 -1035 -55 -13 -31
-12 -193 2 -238 13 -43 49 -60 131 -63 158 -5 294 -48 353 -111 108 -115 40
-259 -262 -562 -101 -101 -183 -177 -384 -356 -52 -46 -97 -87 -100 -90 -3 -4
-34 -33 -70 -65 -36 -32 -83 -74 -105 -94 -22 -20 -107 -97 -190 -170 -82 -74
-155 -139 -160 -145 -6 -6 -51 -47 -100 -90 -50 -44 -99 -89 -111 -100 -12
-12 -36 -34 -55 -50 -19 -17 -99 -89 -179 -161 -80 -72 -150 -134 -157 -138
-9 -6 -11 176 -8 815 3 453 7 850 9 882 15 195 29 256 72 323 29 44 84 77 149
89 22 3 49 8 60 10 38 8 171 15 309 18 l139 2 23 30 c22 26 24 39 24 137 0
118 -13 160 -52 173 -38 13 -2326 11 -2350 -2z"/>
</g>
</svg>
